<svg xmlns="http://www.w3.org/2000/svg" viewBox="0 0 256 256" role="img" aria-labelledby="title desc">
  <title id="title">VibePoser running silhouette icon</title>
  <desc id="desc">A clean running human silhouette inside a rounded square.</desc>
  <defs>
    <linearGradient id="bg" x1="34" y1="32" x2="218" y2="224" gradientUnits="userSpaceOnUse">
      <stop offset="0" stop-color="#15B8A6"/>
      <stop offset="1" stop-color="#2563EB"/>
    </linearGradient>
    <filter id="softShadow" x="-20%" y="-20%" width="140%" height="140%">
      <feDropShadow dx="0" dy="10" stdDeviation="10" flood-color="#0F172A" flood-opacity=".22"/>
    </filter>
  </defs>

  <rect width="256" height="256" rx="48" fill="url(#bg)"/>
  <path d="M48 188c24 20 72 28 126 17 16-3 28-8 38-14" fill="none" stroke="#D7FFFB" stroke-width="8" stroke-linecap="round" opacity=".35"/>

  <g filter="url(#softShadow)" fill="none" stroke="#FFFFFF" stroke-linecap="round" stroke-linejoin="round">
    <circle cx="146" cy="57" r="18" fill="#FFFFFF" stroke="none"/>

    <path d="M132 82l-22 33 38 19 26-33" stroke-width="22"/>
    <path d="M112 111l-39 7" stroke-width="20"/>
    <path d="M149 134l42 6" stroke-width="20"/>
    <path d="M133 134l-23 44" stroke-width="22"/>
    <path d="M111 177l-43 31" stroke-width="20"/>
    <path d="M150 134l24 41" stroke-width="22"/>
    <path d="M174 175l40-10" stroke-width="20"/>
  </g>

  <path d="M84 73c16-18 38-30 66-34" fill="none" stroke="#FFFFFF" stroke-width="8" stroke-linecap="round" opacity=".32"/>
</svg>
